# xmcd
#
# Track frame offsets:
#	150
#	14610
#	20184
#	25761
#	27987
#	33537
#	42967
#	51866
#	65109
#	68660
#	72978
#	79046
#	85607
#	92731
#	103173
#	111369
#	116877
#	119070
#	121249
#	130261
#	137682
#	149737
#	158497
#	166151
#	171081
#	177644
#	185337
#	191677
#	198178
#	211254
#	215632
#	225651
#	230301
#	233381
#	240871
#	246569
#	251071
#	259513
#
# Disc length: 3583 seconds
# Revision: 0
# Processed by: cddbd v1.5.2PL0 Copyright (c) Steve Scherf et al.
# Submitted via: dBpowerAMP V12.0
#
DISCID=260dfd26
DTITLE=Various Artist - (Mix) As Heard On Radio Soulwax pt.14
DYEAR=2011
DGENRE=Mush Up
TTITLE0=Amnesia - Ibiza
TTITLE1=Hot Chip - My Piano (Dub Mix)
TTITLE2=Het Goede Doel - België
TTITLE3=Gesaffelstein - Variations
TTITLE4=Umberto Tozzi - Gloria
TTITLE5=Chimo Bayo - Asi Me Gusta A Mi
TTITLE6=Klaxons - Gravity's Rainbow (Soulwax Remix)
TTITLE7=LCD SoundSystem - You Wanted a Hit (Soulwax Remix)
TTITLE8=Doe Maar - Pa (2 Many DJ's Re-Edit)
TTITLE9=C.L.S. - Can You Feel It
TTITLE10=The Stone Roses - Fools Gold
TTITLE11=Zombie Nation - Squeek
TTITLE12=Jacques Dutronc - Les Cactus
TTITLE13=Irene Cara - Fame (2 Many DJ's Re-Edit)
TTITLE14=Kraftwerk feat. Diplo - Tour De Percão
TTITLE15=KLF - What Time Is Love? (Pure Trance Original)
TTITLE16=Boris Dlugosh - Bangkok
TTITLE17=Jah Wobble, Jaki Liebezeit and Holger Czukay - How Much Are They?
TTITLE18=Harry Thumann - Underwater
TTITLE19=Stevie V, ABBA, Pink Floyd and Flying Lizards - The Dirty Money Medley
TTITLE20=Sovgner - Breathless (Alex Golpher Night Remix)
TTITLE21=Zomgamin - Azzazza (Punks Jump Up Remix)
TTITLE22=Light Year - Sex Education
TTITLE23=Sepultura - Roots
TTITLE24=The Undertones - Teenage Kicks
TTITLE25=Primary 1 and Riton - Who's There? (2 Many DJ's Re-Edit)
TTITLE26=Mumbai Science - Gold
TTITLE27=Paul Chambers - Yeah, Techno! (Soulwax Remix)
TTITLE28=Light Year - 5 Girls
TTITLE29=Them - I Can Only Give You Everything
TTITLE30=The Rolling Stones - You Can't Always Get What You Want (Soulwax Remix)
TTITLE31=Selda - Yaz Gazeteci Yaz
TTITLE32=Dillinger - Cocaine In My Brain
TTITLE33=Queens of The Stone Age - Feel Good Hit of The Summer
TTITLE34=PL - UFOOOOO
TTITLE35=Nirvana - Breed
TTITLE36=Sonic Youth - Kool Thing
TTITLE37=Fischerspooner - Emerge
EXTD=
EXTT0=
EXTT1=
EXTT2=
EXTT3=
EXTT4=
EXTT5=
EXTT6=
EXTT7=
EXTT8=
EXTT9=
EXTT10=
EXTT11=
EXTT12=
EXTT13=
EXTT14=
EXTT15=
EXTT16=
EXTT17=
EXTT18=
EXTT19=
EXTT20=
EXTT21=
EXTT22=
EXTT23=
EXTT24=
EXTT25=
EXTT26=
EXTT27=
EXTT28=
EXTT29=
EXTT30=
EXTT31=
EXTT32=
EXTT33=
EXTT34=
EXTT35=
EXTT36=
EXTT37=
PLAYORDER=
